<svg width="512" height="512" viewBox="0 0 512 512" fill="none" xmlns="http://www.w3.org/2000/svg">
<g clip-path="url(#clip0_11500_1606)">
<rect width="512" height="512" fill="#FC3636"/>
<path d="M146.453 384.965C128.612 384.965 112.726 382.276 98.795 376.9C84.8644 371.523 73.0111 364.069 63.2352 354.537C53.7037 345.006 46.3717 334.008 41.2394 321.544C36.3514 309.079 33.9074 295.76 33.9074 281.585V272.786C33.9074 258.122 36.4736 244.436 41.606 231.727C46.9827 219.019 54.559 207.899 64.335 198.367C74.1109 188.836 85.9641 181.381 99.8948 176.005C113.825 170.628 129.345 167.94 146.453 167.94C163.805 167.94 179.324 170.628 193.01 176.005C206.941 181.381 218.794 188.836 228.57 198.367C238.346 207.899 245.8 219.019 250.933 231.727C256.309 244.436 258.998 258.122 258.998 272.786V281.585C258.998 295.76 256.432 309.079 251.299 321.544C246.411 334.008 239.079 345.006 229.303 354.537C219.772 364.069 208.041 371.523 194.11 376.9C180.179 382.276 164.294 384.965 146.453 384.965ZM146.453 329.242C156.717 329.242 165.149 327.042 171.748 322.643C178.591 318.244 183.723 312.134 187.145 304.314C190.566 296.248 192.277 287.206 192.277 277.185C192.277 266.676 190.444 257.511 186.778 249.691C183.357 241.626 178.224 235.271 171.381 230.628C164.538 225.984 156.228 223.662 146.453 223.662C136.677 223.662 128.367 225.984 121.524 230.628C114.681 235.271 109.426 241.626 105.76 249.691C102.339 257.511 100.628 266.676 100.628 277.185C100.628 287.206 102.339 296.248 105.76 304.314C109.182 312.134 114.314 318.244 121.157 322.643C128.001 327.042 136.432 329.242 146.453 329.242ZM385.708 384.232C369.089 384.232 354.548 380.81 342.083 373.967C329.863 367.124 320.21 357.103 313.122 343.906C306.279 330.708 302.613 314.578 302.124 295.515H307.99V377.633H255.2V110.017H321.921V247.858L307.257 262.522C307.99 242.725 311.778 225.862 318.621 211.931C325.464 198.001 334.874 187.491 346.849 180.404C359.069 173.072 373.122 169.406 389.008 169.406C402.694 169.406 415.036 171.972 426.034 177.105C437.032 181.992 446.319 189.08 453.895 198.367C461.716 207.41 467.704 218.163 471.859 230.628C476.013 243.092 478.091 256.778 478.091 271.686V280.485C478.091 295.393 476.013 309.201 471.859 321.91C467.704 334.374 461.594 345.372 453.529 354.904C445.464 364.191 435.688 371.401 424.201 376.533C412.959 381.665 400.128 384.232 385.708 384.232ZM366.645 329.242C375.444 329.242 383.142 327.042 389.741 322.643C396.584 318 401.839 311.645 405.505 303.58C409.415 295.515 411.37 286.35 411.37 276.086C411.37 265.576 409.415 256.534 405.505 248.957C401.839 241.137 396.706 235.149 390.108 230.994C383.509 226.595 375.688 224.395 366.645 224.395C358.58 224.395 351.004 226.228 343.916 229.894C337.073 233.56 331.452 238.937 327.053 246.025C322.654 253.112 320.454 261.666 320.454 271.686V284.151C320.454 293.682 322.776 301.87 327.42 308.713C332.063 315.311 337.929 320.444 345.016 324.11C352.104 327.531 359.313 329.242 366.645 329.242Z" fill="white"/>
</g>
<defs>
<clipPath id="clip0_11500_1606">
<rect width="512" height="512" rx="99" fill="white"/>
</clipPath>
</defs>
</svg>
